<mxfile host="app.diagrams.net" modified="2022-03-16T22:18:53.034Z" agent="5.0 (Windows NT 10.0; Win64; x64) AppleWebKit/537.36 (KHTML, like Gecko) Chrome/96.0.4664.174 YaBrowser/22.1.5.810 Yowser/2.5 Safari/537.36" etag="JhnY-f77wD8cZ58CPvw0" version="17.1.3" type="github">
  <diagram id="C5RBs43oDa-KdzZeNtuy" name="Page-1">
    <mxGraphModel dx="1359" dy="792" grid="1" gridSize="10" guides="1" tooltips="1" connect="1" arrows="1" fold="1" page="1" pageScale="1" pageWidth="827" pageHeight="1169" math="0" shadow="0">
      <root>
        <mxCell id="WIyWlLk6GJQsqaUBKTNV-0" />
        <mxCell id="WIyWlLk6GJQsqaUBKTNV-1" parent="WIyWlLk6GJQsqaUBKTNV-0" />
        <mxCell id="2_MGbHko2nsmeL7omBgD-2" style="edgeStyle=orthogonalEdgeStyle;rounded=0;orthogonalLoop=1;jettySize=auto;html=1;exitX=1;exitY=0.5;exitDx=0;exitDy=0;entryX=0;entryY=0.5;entryDx=0;entryDy=0;" parent="WIyWlLk6GJQsqaUBKTNV-1" source="WIyWlLk6GJQsqaUBKTNV-3" target="WIyWlLk6GJQsqaUBKTNV-7" edge="1">
          <mxGeometry relative="1" as="geometry" />
        </mxCell>
        <mxCell id="WIyWlLk6GJQsqaUBKTNV-3" value="Авторизоваться" style="rounded=1;whiteSpace=wrap;html=1;fontSize=12;glass=0;strokeWidth=1;shadow=0;" parent="WIyWlLk6GJQsqaUBKTNV-1" vertex="1">
          <mxGeometry x="160" y="80" width="120" height="40" as="geometry" />
        </mxCell>
        <mxCell id="2_MGbHko2nsmeL7omBgD-4" style="edgeStyle=orthogonalEdgeStyle;rounded=0;orthogonalLoop=1;jettySize=auto;html=1;exitX=0;exitY=0.5;exitDx=0;exitDy=0;entryX=0.5;entryY=1;entryDx=0;entryDy=0;" parent="WIyWlLk6GJQsqaUBKTNV-1" source="WIyWlLk6GJQsqaUBKTNV-6" target="WIyWlLk6GJQsqaUBKTNV-3" edge="1">
          <mxGeometry relative="1" as="geometry" />
        </mxCell>
        <mxCell id="2_MGbHko2nsmeL7omBgD-5" value="Нет" style="edgeLabel;html=1;align=center;verticalAlign=middle;resizable=0;points=[];" parent="2_MGbHko2nsmeL7omBgD-4" vertex="1" connectable="0">
          <mxGeometry x="-0.2384" relative="1" as="geometry">
            <mxPoint as="offset" />
          </mxGeometry>
        </mxCell>
        <mxCell id="2_MGbHko2nsmeL7omBgD-7" style="edgeStyle=orthogonalEdgeStyle;rounded=0;orthogonalLoop=1;jettySize=auto;html=1;exitX=0.5;exitY=1;exitDx=0;exitDy=0;" parent="WIyWlLk6GJQsqaUBKTNV-1" source="WIyWlLk6GJQsqaUBKTNV-6" target="WIyWlLk6GJQsqaUBKTNV-12" edge="1">
          <mxGeometry relative="1" as="geometry" />
        </mxCell>
        <mxCell id="2_MGbHko2nsmeL7omBgD-8" value="Да" style="edgeLabel;html=1;align=center;verticalAlign=middle;resizable=0;points=[];" parent="2_MGbHko2nsmeL7omBgD-7" vertex="1" connectable="0">
          <mxGeometry x="0.1628" y="1" relative="1" as="geometry">
            <mxPoint as="offset" />
          </mxGeometry>
        </mxCell>
        <mxCell id="WIyWlLk6GJQsqaUBKTNV-6" value="Данные корректны?" style="rhombus;whiteSpace=wrap;html=1;shadow=0;fontFamily=Helvetica;fontSize=12;align=center;strokeWidth=1;spacing=6;spacingTop=-4;" parent="WIyWlLk6GJQsqaUBKTNV-1" vertex="1">
          <mxGeometry x="250" y="150" width="100" height="80" as="geometry" />
        </mxCell>
        <mxCell id="2_MGbHko2nsmeL7omBgD-3" style="edgeStyle=orthogonalEdgeStyle;rounded=0;orthogonalLoop=1;jettySize=auto;html=1;exitX=0.5;exitY=1;exitDx=0;exitDy=0;entryX=0.5;entryY=0;entryDx=0;entryDy=0;" parent="WIyWlLk6GJQsqaUBKTNV-1" source="WIyWlLk6GJQsqaUBKTNV-7" target="WIyWlLk6GJQsqaUBKTNV-6" edge="1">
          <mxGeometry relative="1" as="geometry" />
        </mxCell>
        <mxCell id="WIyWlLk6GJQsqaUBKTNV-7" value="Проверка данных" style="rounded=1;whiteSpace=wrap;html=1;fontSize=12;glass=0;strokeWidth=1;shadow=0;" parent="WIyWlLk6GJQsqaUBKTNV-1" vertex="1">
          <mxGeometry x="320" y="80" width="120" height="40" as="geometry" />
        </mxCell>
        <mxCell id="8ySUQ2YLRH5iV3521kGF-13" style="edgeStyle=orthogonalEdgeStyle;rounded=0;orthogonalLoop=1;jettySize=auto;html=1;exitX=0.5;exitY=1;exitDx=0;exitDy=0;" edge="1" parent="WIyWlLk6GJQsqaUBKTNV-1" source="WIyWlLk6GJQsqaUBKTNV-12" target="8ySUQ2YLRH5iV3521kGF-12">
          <mxGeometry relative="1" as="geometry" />
        </mxCell>
        <mxCell id="WIyWlLk6GJQsqaUBKTNV-12" value="Получить список акций" style="rounded=1;whiteSpace=wrap;html=1;fontSize=12;glass=0;strokeWidth=1;shadow=0;" parent="WIyWlLk6GJQsqaUBKTNV-1" vertex="1">
          <mxGeometry x="240" y="270" width="120" height="40" as="geometry" />
        </mxCell>
        <mxCell id="2_MGbHko2nsmeL7omBgD-1" style="edgeStyle=orthogonalEdgeStyle;rounded=0;orthogonalLoop=1;jettySize=auto;html=1;exitX=0.5;exitY=1;exitDx=0;exitDy=0;entryX=0.5;entryY=0;entryDx=0;entryDy=0;" parent="WIyWlLk6GJQsqaUBKTNV-1" source="2_MGbHko2nsmeL7omBgD-0" target="WIyWlLk6GJQsqaUBKTNV-3" edge="1">
          <mxGeometry relative="1" as="geometry" />
        </mxCell>
        <mxCell id="2_MGbHko2nsmeL7omBgD-0" value="" style="ellipse;whiteSpace=wrap;html=1;aspect=fixed;fillColor=#000000;" parent="WIyWlLk6GJQsqaUBKTNV-1" vertex="1">
          <mxGeometry x="195" width="50" height="50" as="geometry" />
        </mxCell>
        <mxCell id="8ySUQ2YLRH5iV3521kGF-0" style="edgeStyle=orthogonalEdgeStyle;rounded=0;orthogonalLoop=1;jettySize=auto;html=1;exitX=0;exitY=0.5;exitDx=0;exitDy=0;entryX=0.5;entryY=0;entryDx=0;entryDy=0;" edge="1" parent="WIyWlLk6GJQsqaUBKTNV-1" source="8ySUQ2YLRH5iV3521kGF-2" target="8ySUQ2YLRH5iV3521kGF-4">
          <mxGeometry relative="1" as="geometry" />
        </mxCell>
        <mxCell id="8ySUQ2YLRH5iV3521kGF-1" value="Да" style="edgeLabel;html=1;align=center;verticalAlign=middle;resizable=0;points=[];" vertex="1" connectable="0" parent="8ySUQ2YLRH5iV3521kGF-0">
          <mxGeometry x="0.0965" y="1" relative="1" as="geometry">
            <mxPoint x="-1" y="16" as="offset" />
          </mxGeometry>
        </mxCell>
        <mxCell id="8ySUQ2YLRH5iV3521kGF-18" style="edgeStyle=orthogonalEdgeStyle;rounded=0;orthogonalLoop=1;jettySize=auto;html=1;exitX=1;exitY=0.5;exitDx=0;exitDy=0;entryX=0;entryY=0.5;entryDx=0;entryDy=0;entryPerimeter=0;" edge="1" parent="WIyWlLk6GJQsqaUBKTNV-1" source="8ySUQ2YLRH5iV3521kGF-2" target="8ySUQ2YLRH5iV3521kGF-15">
          <mxGeometry relative="1" as="geometry" />
        </mxCell>
        <mxCell id="8ySUQ2YLRH5iV3521kGF-19" value="Нет" style="edgeLabel;html=1;align=center;verticalAlign=middle;resizable=0;points=[];" vertex="1" connectable="0" parent="8ySUQ2YLRH5iV3521kGF-18">
          <mxGeometry x="-0.3292" relative="1" as="geometry">
            <mxPoint as="offset" />
          </mxGeometry>
        </mxCell>
        <mxCell id="8ySUQ2YLRH5iV3521kGF-2" value="Данные корректные" style="rhombus;whiteSpace=wrap;html=1;shadow=0;fontFamily=Helvetica;fontSize=12;align=center;strokeWidth=1;spacing=6;spacingTop=-4;" vertex="1" parent="WIyWlLk6GJQsqaUBKTNV-1">
          <mxGeometry x="400" y="490" width="100" height="80" as="geometry" />
        </mxCell>
        <mxCell id="8ySUQ2YLRH5iV3521kGF-3" style="edgeStyle=orthogonalEdgeStyle;rounded=0;orthogonalLoop=1;jettySize=auto;html=1;exitX=0.5;exitY=1;exitDx=0;exitDy=0;" edge="1" parent="WIyWlLk6GJQsqaUBKTNV-1" source="8ySUQ2YLRH5iV3521kGF-4" target="8ySUQ2YLRH5iV3521kGF-11">
          <mxGeometry relative="1" as="geometry" />
        </mxCell>
        <mxCell id="8ySUQ2YLRH5iV3521kGF-4" value="Отобразить открытую позицию на странице с открытыми позициями" style="rounded=1;whiteSpace=wrap;html=1;fontSize=12;glass=0;strokeWidth=1;shadow=0;" vertex="1" parent="WIyWlLk6GJQsqaUBKTNV-1">
          <mxGeometry x="240" y="605" width="120" height="70" as="geometry" />
        </mxCell>
        <mxCell id="8ySUQ2YLRH5iV3521kGF-5" style="edgeStyle=orthogonalEdgeStyle;rounded=0;orthogonalLoop=1;jettySize=auto;html=1;" edge="1" parent="WIyWlLk6GJQsqaUBKTNV-1" target="8ySUQ2YLRH5iV3521kGF-7" source="8ySUQ2YLRH5iV3521kGF-12">
          <mxGeometry relative="1" as="geometry">
            <mxPoint x="300" y="400" as="sourcePoint" />
          </mxGeometry>
        </mxCell>
        <mxCell id="8ySUQ2YLRH5iV3521kGF-6" style="edgeStyle=orthogonalEdgeStyle;rounded=0;orthogonalLoop=1;jettySize=auto;html=1;exitX=1;exitY=0.5;exitDx=0;exitDy=0;entryX=0;entryY=0.5;entryDx=0;entryDy=0;" edge="1" parent="WIyWlLk6GJQsqaUBKTNV-1" source="8ySUQ2YLRH5iV3521kGF-7" target="8ySUQ2YLRH5iV3521kGF-9">
          <mxGeometry relative="1" as="geometry" />
        </mxCell>
        <mxCell id="8ySUQ2YLRH5iV3521kGF-7" value="Открыть позицию" style="rounded=1;whiteSpace=wrap;html=1;fontSize=12;glass=0;strokeWidth=1;shadow=0;" vertex="1" parent="WIyWlLk6GJQsqaUBKTNV-1">
          <mxGeometry x="240" y="430" width="120" height="40" as="geometry" />
        </mxCell>
        <mxCell id="8ySUQ2YLRH5iV3521kGF-8" style="edgeStyle=orthogonalEdgeStyle;rounded=0;orthogonalLoop=1;jettySize=auto;html=1;exitX=0.5;exitY=1;exitDx=0;exitDy=0;entryX=0.5;entryY=0;entryDx=0;entryDy=0;" edge="1" parent="WIyWlLk6GJQsqaUBKTNV-1" source="8ySUQ2YLRH5iV3521kGF-9" target="8ySUQ2YLRH5iV3521kGF-2">
          <mxGeometry relative="1" as="geometry" />
        </mxCell>
        <mxCell id="8ySUQ2YLRH5iV3521kGF-9" value="Проверка данных" style="rounded=1;whiteSpace=wrap;html=1;fontSize=12;glass=0;strokeWidth=1;shadow=0;" vertex="1" parent="WIyWlLk6GJQsqaUBKTNV-1">
          <mxGeometry x="390" y="430" width="120" height="40" as="geometry" />
        </mxCell>
        <mxCell id="8ySUQ2YLRH5iV3521kGF-10" value="" style="ellipse;whiteSpace=wrap;html=1;aspect=fixed;fillColor=#FFFFFF;" vertex="1" parent="WIyWlLk6GJQsqaUBKTNV-1">
          <mxGeometry x="280" y="690" width="40" height="40" as="geometry" />
        </mxCell>
        <mxCell id="8ySUQ2YLRH5iV3521kGF-11" value="" style="ellipse;whiteSpace=wrap;html=1;aspect=fixed;fillColor=#000000;" vertex="1" parent="WIyWlLk6GJQsqaUBKTNV-1">
          <mxGeometry x="282.5" y="692.5" width="35" height="35" as="geometry" />
        </mxCell>
        <mxCell id="8ySUQ2YLRH5iV3521kGF-12" value="Выбрать акцию" style="rounded=1;whiteSpace=wrap;html=1;fontSize=12;glass=0;strokeWidth=1;shadow=0;" vertex="1" parent="WIyWlLk6GJQsqaUBKTNV-1">
          <mxGeometry x="240" y="340" width="120" height="40" as="geometry" />
        </mxCell>
        <mxCell id="8ySUQ2YLRH5iV3521kGF-15" value="" style="verticalLabelPosition=bottom;verticalAlign=top;html=1;shape=mxgraph.flowchart.or;" vertex="1" parent="WIyWlLk6GJQsqaUBKTNV-1">
          <mxGeometry x="660" y="495" width="70" height="70" as="geometry" />
        </mxCell>
      </root>
    </mxGraphModel>
  </diagram>
</mxfile>
